# xmcd CD database file
#
# Track frame offsets:
#	150
#	28612
#	51831
#	84060
#	110283
#	125837
#	164145
#	185943
#	217820
#	234605
#	260059
#	285076
#
# Disc length: 4309 seconds
#
# Revision: 0
# Processed by: cddbd v1.5.2PL0 Copyright (c) Steve Scherf et al.
# Submitted via: CDex 1.51
#
DISCID=a910d30c
DTITLE=Shambhavi Christiah - Good night wish
DYEAR=1900
DGENRE=New Age
TTITLE0=Good night 01
TTITLE1=Good night 02
TTITLE2=Good night 03
TTITLE3=Good night 04
TTITLE4=Good night 05
TTITLE5=Good night 06
TTITLE6=Good night 07
TTITLE7=Good night 08
TTITLE8=Good night 09
TTITLE9=Good night 10
TTITLE10=Good night 11
TTITLE11=Good night12
EXTD=
EXTT0=
EXTT1=
EXTT2=
EXTT3=
EXTT4=
EXTT5=
EXTT6=
EXTT7=
EXTT8=
EXTT9=
EXTT10=
EXTT11=
PLAYORDER=
